<?xml version="1.0" encoding="UTF-8"?>
<svg xmlns="http://www.w3.org/2000/svg" style="stroke-dasharray:none; shape-rendering:auto; font-family:'Arial'; text-rendering:auto; fill-opacity:1; color-interpolation:auto; color-rendering:auto; font-size:12; fill:black; stroke:black; image-rendering:auto; stroke-miterlimit:10; stroke-linecap:square; stroke-linejoin:miter; font-style:normal; stroke-width:1; stroke-dashoffset:0; font-weight:normal; stroke-opacity:1;" contentScriptType="text/ecmascript" preserveAspectRatio="xMidYMid meet" zoomAndPan="magnify" version="1.0" contentStyleType="text/css" xml:xlink="http://www.w3.org/1999/xlink" width="841" height="431"><rect x="10" y="10" width="831" height="421" ry="0" rx="0" style="stroke:#000000; fill:#FFFFFF" /><rect x="40" y="290" width="801" height="141" ry="0" rx="0" style="stroke:#000000; fill:#82B0B7" /><g componentSequence="19"><text x="-360" y="47" transform="rotate(270)" text-anchor="middle" style="font-weight:bold;font-size:10px;stroke:none; fill:#434343"><tspan dy="14" x="-360">Gestor T.I.</tspan></text></g><rect x="40" y="150" width="801" height="140" ry="0" rx="0" style="stroke:#000000; fill:#FB8D82" /><g componentSequence="3"><text x="-220" y="47" transform="rotate(270)" text-anchor="middle" style="font-weight:bold;font-size:10px;stroke:none; fill:#434343"><tspan dy="14" x="-220">SUPORTE</tspan></text></g><rect x="40" y="10" width="801" height="140" ry="0" rx="0" style="stroke:#000000; fill:#FF8040" /><g componentSequence="2"><text x="-80" y="47" transform="rotate(270)" text-anchor="middle" style="font-weight:bold;font-size:10px;stroke:none; fill:#434343"><tspan dy="14" x="-80">SOLICITANTE</tspan></text></g><g componentSequence="1"><text x="-220" y="17" transform="rotate(270)" text-anchor="middle" style="font-weight:bold;font-size:10px;stroke:none; fill:#434343"><tspan dy="14" x="-220">Processo HELP DESK</tspan></text></g><g sequence="4"><ellipse cx="137" cy="107" rx="17" ry="17" stroke-width="1" style="fill:url(#linearGradient66FF6696FF96B6FFB6_311847281);" stroke="336633" /></g><g sequence="5"><rect x="230" y="190" width="106" height="70" ry="5" rx="5" style="fill:url(#linearGradientF8FBFEEDF5FCDEEDFAD4E7F8E2E5E9_475104595);" stroke="191970" /></g><g componentSequence="5"><text x="283" y="205" text-anchor="middle" style="font-weight:bold;font-size:10px;stroke:none; fill:#333399"><tspan dy="14" x="283">Solucionar</tspan><tspan dy="14" x="283">Demanda</tspan></text></g><rect x="160" y="40" width="105" height="70" ry="5" rx="5" style="stroke:none; fill:#FFFFE0" /><g componentSequence="7"><text x="170" y="63" text-anchor="left" style="font-weight:bold;font-size:10px;stroke:none; fill:#000000"><tspan dy="14" x="170">Inicio do</tspan><tspan dy="14" x="170">Processo</tspan></text></g><path style="fill:none; stroke-width:1; stroke:#000000;" d="M180.0 40.0 L160.0 40.0 L160.0 110.0 L180.0 110.0" /><g sequence="9"><rect x="400" y="54" width="106" height="56" ry="5" rx="5" style="fill:url(#linearGradientF8FBFEEDF5FCDEEDFAD4E7F8E2E5E9_409862657);" stroke="191970" /></g><g componentSequence="9"><text x="453" y="71" text-anchor="middle" style="font-weight:bold;font-size:10px;stroke:none; fill:#333399"><tspan dy="14" x="453">Validar Solução</tspan></text></g><g sequence="14"><polygon points=" 560 61 590 31 620 61 590 91 560 61" style="fill:url(#linearGradientFAFBFCFFFFCC_1567395688);" stroke="000000" /></g><g componentSequence="14"><text x="590" y="101" text-anchor="middle" style="font-weight:bold;font-size:10px;stroke:none; fill:#333399"><tspan dy="14" x="590">Exclusiv</tspan><tspan dy="14" x="590">e</tspan></text></g><g sequence="15"><ellipse cx="747" cy="81" rx="17" ry="17" stroke-width="3" style="fill:url(#linearGradientFF6666FF9696FFB6B6_2089859157);" stroke="993333" /></g><g sequence="20"><rect x="537" y="327" width="106" height="70" ry="5" rx="5" style="fill:url(#linearGradientF8FBFEEDF5FCDEEDFAD4E7F8E2E5E9_1820053897);" stroke="191970" /></g><g componentSequence="20"><text x="590" y="342" text-anchor="middle" style="font-weight:bold;font-size:10px;stroke:none; fill:#333399"><tspan dy="14" x="590">Analise da</tspan><tspan dy="14" x="590">gestão</tspan></text></g><g sequence="22"><ellipse cx="747" cy="361" rx="17" ry="17" stroke-width="3" style="fill:url(#linearGradientFF6666FF9696FFB6B6_74299405);" stroke="993333" /></g><g componentSequence="6"><text x="147" y="221" style="font-size:10px;font-weight:none;stroke:none; fill:#333399" text-anchor="left" /></g><g componentSequence="8"><text x="151" y="74" style="font-size:10px;font-weight:none;stroke:none; fill:#333399" text-anchor="left" /></g><g componentSequence="10"><text x="462" y="225" style="font-size:10px;font-weight:none;stroke:none; fill:#333399" text-anchor="left" /></g><g componentSequence="16"><text x="685" y="81" style="font-size:10px;font-weight:none;stroke:none; fill:#333399" text-anchor="left" /></g><g componentSequence="18"><text x="355" y="29" style="font-size:10px;font-weight:none;stroke:none; fill:#333399" text-anchor="left" /></g><g componentSequence="21"><text x="600" y="230" style="font-size:10px;font-weight:none;stroke:none; fill:#333399" text-anchor="left" /></g><g componentSequence="23"><text x="696" y="361" style="font-size:10px;font-weight:none;stroke:none; fill:#333399" text-anchor="left" /></g><g componentSequence="24"><text x="369" y="362" style="font-size:10px;font-weight:none;stroke:none; fill:#333399" text-anchor="left" /></g><g componentSequence="25"><text x="543" y="82" style="font-size:10px;font-weight:none;stroke:none; fill:#333399" text-anchor="left" /></g><path style="fill:none; stroke:#000000;stroke-width:1" d="M137.0 125.0 L137.0 225.0 L229.0 225.0" /><polygon style="fill:#000000; stroke:#000000;" points=" 219 220 229 225 219 230 221 225" /><path style="fill:none; stroke:#000000;stroke-dasharray:2" d="M159.0 74.0 L137.0 74.0 L137.0 89.0" /><path style="fill:none; stroke:#000000;stroke-width:1" d="M336.0 225.0 L452.0 225.0 L452.0 110.0" /><polygon style="fill:#000000; stroke:#000000;" points=" 447 120 452 110 457 120 452 118" /><path style="fill:none; stroke:#000000;stroke-width:1" d="M559.0 50.0 L538.0 29.0 L283.0 29.0 L283.0 189.0" /><polygon style="fill:#000000; stroke:#000000;" points=" 288 179 283 189 278 179 283 181" /><path style="fill:none; stroke:#000000;stroke-width:1" d="M536.0 362.0 L283.0 362.0 L283.0 260.0" /><polygon style="fill:#000000; stroke:#000000;" points=" 278 270 283 260 288 270 283 268" /><path style="fill:none; stroke:#000000;stroke-width:1" d="M506.0 82.0 L559.0 82.0" /><polygon style="fill:#000000; stroke:#000000;" points=" 549 77 559 82 549 87 551 82" /><path style="fill:none; stroke:#000000;stroke-width:1" d="M620.0 81.0 L730.0 81.0" /><polygon style="fill:#000000; stroke:#000000;" points=" 720 76 730 81 720 86 722 81" /><path style="fill:none; stroke:#000000;stroke-width:1" d="M590.0 133.0 L590.0 326.0" /><polygon style="fill:#000000; stroke:#000000;" points=" 595 316 590 326 585 316 590 318" /><path style="fill:none; stroke:#000000;stroke-width:1" d="M643.0 361.0 L730.0 361.0" /><polygon style="fill:#000000; stroke:#000000;" points=" 720 356 730 361 720 366 722 361" /><defs><linearGradient xmlns:xlink="http://www.w3.org/1999/xlink" xlink:href="#linearGradient66FF6696FF96B6FFB6" id="linearGradient66FF6696FF96B6FFB6_311847281" x1="0" y1="90.0" x2="0" y2="125.0" gradientUnits="userSpaceOnUse" xlink:type="simple" xlink:actuate="onLoad" xlink:show="other" /><linearGradient id="linearGradient66FF6696FF96B6FFB6"><stop style="stop-color:#66FF66;stop-opacity:1;" offset="0.0" id="stop66FF66" /><stop style="stop-color:#96FF96;stop-opacity:1;" offset="0.5" id="stop96FF96" /><stop style="stop-color:#B6FFB6;stop-opacity:1;" offset="1.0" id="stopB6FFB6" /></linearGradient><linearGradient xmlns:xlink="http://www.w3.org/1999/xlink" xlink:href="#linearGradientF8FBFEEDF5FCDEEDFAD4E7F8E2E5E9" id="linearGradientF8FBFEEDF5FCDEEDFAD4E7F8E2E5E9_475104595" x1="0" y1="190.0" x2="0" y2="296.0" gradientUnits="userSpaceOnUse" xlink:type="simple" xlink:actuate="onLoad" xlink:show="other" /><linearGradient id="linearGradientF8FBFEEDF5FCDEEDFAD4E7F8E2E5E9"><stop style="stop-color:#F8FBFE;stop-opacity:1;" offset="0.0" id="stopF8FBFE" /><stop style="stop-color:#EDF5FC;stop-opacity:1;" offset="0.25" id="stopEDF5FC" /><stop style="stop-color:#DEEDFA;stop-opacity:1;" offset="0.5" id="stopDEEDFA" /><stop style="stop-color:#D4E7F8;stop-opacity:1;" offset="0.75" id="stopD4E7F8" /><stop style="stop-color:#E2E5E9;stop-opacity:1;" offset="1.0" id="stopE2E5E9" /></linearGradient><linearGradient xmlns:xlink="http://www.w3.org/1999/xlink" xlink:href="#linearGradientF8FBFEEDF5FCDEEDFAD4E7F8E2E5E9" id="linearGradientF8FBFEEDF5FCDEEDFAD4E7F8E2E5E9_409862657" x1="0" y1="54.0" x2="0" y2="160.0" gradientUnits="userSpaceOnUse" xlink:type="simple" xlink:actuate="onLoad" xlink:show="other" /><linearGradient xmlns:xlink="http://www.w3.org/1999/xlink" xlink:href="#linearGradientFAFBFCFFFFCC" id="linearGradientFAFBFCFFFFCC_1567395688" x1="0" y1="31.0" x2="0" y2="91.0" gradientUnits="userSpaceOnUse" xlink:type="simple" xlink:actuate="onLoad" xlink:show="other" /><linearGradient id="linearGradientFAFBFCFFFFCC"><stop style="stop-color:#FAFBFC;stop-opacity:1;" offset="0.0" id="stopFAFBFC" /><stop style="stop-color:#FFFFCC;stop-opacity:1;" offset="1.0" id="stopFFFFCC" /></linearGradient><linearGradient xmlns:xlink="http://www.w3.org/1999/xlink" xlink:href="#linearGradientFF6666FF9696FFB6B6" id="linearGradientFF6666FF9696FFB6B6_2089859157" x1="0" y1="64.0" x2="0" y2="99.0" gradientUnits="userSpaceOnUse" xlink:type="simple" xlink:actuate="onLoad" xlink:show="other" /><linearGradient id="linearGradientFF6666FF9696FFB6B6"><stop style="stop-color:#FF6666;stop-opacity:1;" offset="0.0" id="stopFF6666" /><stop style="stop-color:#FF9696;stop-opacity:1;" offset="0.5" id="stopFF9696" /><stop style="stop-color:#FFB6B6;stop-opacity:1;" offset="1.0" id="stopFFB6B6" /></linearGradient><linearGradient xmlns:xlink="http://www.w3.org/1999/xlink" xlink:href="#linearGradientF8FBFEEDF5FCDEEDFAD4E7F8E2E5E9" id="linearGradientF8FBFEEDF5FCDEEDFAD4E7F8E2E5E9_1820053897" x1="0" y1="327.0" x2="0" y2="433.0" gradientUnits="userSpaceOnUse" xlink:type="simple" xlink:actuate="onLoad" xlink:show="other" /><linearGradient xmlns:xlink="http://www.w3.org/1999/xlink" xlink:href="#linearGradientFF6666FF9696FFB6B6" id="linearGradientFF6666FF9696FFB6B6_74299405" x1="0" y1="344.0" x2="0" y2="379.0" gradientUnits="userSpaceOnUse" xlink:type="simple" xlink:actuate="onLoad" xlink:show="other" /></defs></svg>
